<svg xmlns="http://www.w3.org/2000/svg" width="31" height="30" viewBox="0 0 31 30" fill="none">
  <path d="M24.3278 3.25391L16.505 8.93751L29.6125 18.4608C29.8748 17.3515 30.0143 16.1953 30.0143 15.007C30.0143 10.2511 27.7901 6.00537 24.3278 3.25391V3.25391Z" fill="#E24C4C"/>
  <path d="M22.8029 2.18817C20.5295 0.80042 17.8601 0 15.0072 0C11.9411 0 9.08744 0.924933 6.70898 2.50942L9.69846 11.7093L22.8029 2.18817Z" fill="#E24C4C"/>
  <path d="M5.2256 3.63525C2.02802 6.38948 0 10.4659 0 15.0073C0 16.4028 0.192162 17.7541 0.550165 19.0369H10.2303L5.2256 3.63525Z" fill="#E24C4C"/>
  <path d="M1.16168 20.7954C3.35419 26.0202 8.4211 29.7512 14.373 30L17.3637 20.7954L1.16168 20.7954Z" fill="#E24C4C"/>
  <path d="M16.2338 29.9641C22.134 29.4845 27.0795 25.5775 29.0717 20.242L21.2412 14.5527L16.2338 29.9641Z" fill="#E24C4C"/>
</svg>