<svg xmlns="http://www.w3.org/2000/svg" width="33" height="30" viewBox="0 0 33 30" fill="none">
  <path d="M8.52192 23.8635C6.33874 23.8635 4.39692 22.4658 3.69192 20.3849L3.6442 20.2281C3.47783 19.6772 3.40829 19.2135 3.40829 18.7499V9.45264L0.100106 20.4954C-0.325348 22.1195 0.644197 23.8035 2.27102 24.2522L23.3569 29.899C23.6201 29.9672 23.8833 29.9999 24.1424 29.9999C25.5006 29.9999 26.7415 29.0985 27.0892 27.7704L28.3178 23.8635H8.52192Z" fill="#E24C4C"/>
  <path d="M12.272 9.54537C13.776 9.54537 14.9992 8.32218 14.9992 6.81809C14.9992 5.314 13.776 4.09082 12.272 4.09082C10.7679 4.09082 9.54468 5.314 9.54468 6.81809C9.54468 8.32218 10.7679 9.54537 12.272 9.54537Z" fill="#E24C4C"/>
  <path fill-rule="evenodd" clip-rule="evenodd" d="M8.86283 0H29.3174C31.1965 0 32.7265 1.53 32.7265 3.40909V18.4091C32.7265 20.2882 31.1965 21.8182 29.3174 21.8182H8.86283C6.98374 21.8182 5.45374 20.2882 5.45374 18.4091V3.40909C5.45374 1.53 6.98374 0 8.86283 0ZM29.3174 2.72727H8.86283C8.48646 2.72727 8.18101 3.03273 8.18101 3.40909V16.2805L11.9446 12.5182C12.876 11.5855 14.3937 11.5855 15.3265 12.5182L16.9765 14.1641L22.041 8.085C22.4937 7.54227 23.1565 7.22864 23.8628 7.22455C24.5733 7.24091 25.2346 7.52727 25.6915 8.06318L29.9992 13.0895V3.40909C29.9992 3.03273 29.6937 2.72727 29.3174 2.72727Z" fill="#E24C4C"/>
</svg>