<svg width="259" height="201" viewBox="0 0 259 201" fill="none" xmlns="http://www.w3.org/2000/svg">
<ellipse cx="197.821" cy="153.978" rx="13.7597" ry="28.0754" fill="#3F3D56"/>
<path d="M196.551 199.933C202.062 166.869 196.606 133.924 196.551 133.595L195.479 133.777C195.534 134.104 200.958 166.876 195.478 199.755L196.551 199.933Z" fill="#CACACA"/>
<path d="M185.194 148.9L185.707 147.941L198.15 154.596L197.637 155.555L185.194 148.9Z" fill="#CACACA"/>
<path d="M198.328 157.934L210.769 151.275L211.282 152.234L198.841 158.893L198.328 157.934Z" fill="#CACACA"/>
<ellipse cx="230.882" cy="109.545" rx="26.9124" ry="54.9122" fill="#E6E6E6"/>
<path d="M227.884 199.342C238.649 134.757 227.993 70.4076 227.884 69.7651L226.812 69.9467C226.921 70.5876 237.545 134.764 226.812 199.164L227.884 199.342Z" fill="#CACACA"/>
<path d="M206.43 99.1538L206.943 98.1949L231.279 111.212L230.767 112.171L206.43 99.1538Z" fill="#CACACA"/>
<path d="M232.117 117.74L256.451 104.716L256.964 105.675L232.631 118.699L232.117 117.74Z" fill="#CACACA"/>
<path d="M168.378 199.515H25.2295C24.1333 199.513 23.2449 198.625 23.2437 197.529V107.076C23.2449 105.979 24.1332 105.091 25.2295 105.09H168.378C169.474 105.091 170.363 105.979 170.364 107.076V197.529C170.363 198.625 169.474 199.513 168.378 199.515Z" fill="#E4E4E4"/>
<path d="M38.3939 116.051C37.9241 116.051 37.5434 116.432 37.5428 116.902V187.703C37.5434 188.172 37.9241 188.553 38.3939 188.554H155.214C155.684 188.553 156.064 188.172 156.065 187.703V116.902C156.064 116.432 155.684 116.051 155.214 116.051H38.3939Z" fill="white"/>
<path fill-rule="evenodd" clip-rule="evenodd" d="M156.348 129.8V134.286H139.828V151.734H156.348V156.22H105.93V174.914H156.348V179.401H105.93V188.837H101.444V179.401H80.2573V188.837H75.7708V179.401H35.907V174.914H51.5934V156.22H35.907V151.734H51.5934V134.286H35.907V129.8H51.5934V115.767H56.08V129.8H101.444V115.767H105.93V129.8H135.342V115.767H139.828V129.8H156.348ZM101.444 139.77V134.286H56.08V139.77H101.444ZM56.08 144.256H101.444V151.734H56.08V144.256ZM56.08 156.22V174.914H75.7708V156.22H56.08ZM101.444 174.914H80.2573V156.22H101.444V174.914ZM105.93 151.734H135.342V134.286H105.93V151.734Z" fill="#E6E6E6"/>
<circle cx="103.687" cy="154.545" r="5.73275" fill="#E24C4C"/>
<path d="M258.303 200.381H0V199.381H258.415L258.303 200.381Z" fill="#CACACA"/>
<circle cx="104.374" cy="85.1256" r="35.3634" fill="#E24C4C"/>
<path d="M104.72 142.613L93.5475 123.528L82.3752 104.443L104.489 104.31L126.604 104.177L115.662 123.395L104.72 142.613Z" fill="#E24C4C"/>
<circle cx="104.658" cy="84.9032" r="12.6879" fill="white"/>
<path d="M103.556 0.181709C103.556 0.181709 95.9889 -1.94985 93.7508 8.3882C91.5126 18.7263 92.9342 17.4237 92.9342 17.4237L109.827 15.452C109.827 15.452 114.906 3.32575 103.556 0.181709Z" fill="#2F2E41"/>
<path d="M92.5512 45.5352C92.5512 45.5352 81.1351 46.0636 83.1121 50.5447C83.2519 50.8615 83.382 51.1583 83.5024 51.4351C84.9156 54.6809 86.5422 57.8294 88.3716 60.8601L95.3881 72.4857L97.9413 71.0672L90.7564 52.3899L97.2145 51.8628L92.5512 45.5352Z" fill="#FFB6B6"/>
<path d="M122.652 50.2811L126.342 58.3208C126.342 58.3208 129.11 61.0886 132.141 72.1596C135.172 83.2307 135.831 82.8353 135.831 82.8353L132.835 83.8332L120.543 61.484L114.48 53.8397L116.325 49.7539L122.652 50.2811Z" fill="#FFB6B6"/>
<path d="M118.171 41.0553L123.473 50.9253C123.473 50.9253 135.496 74.55 134.254 74.4715C132.857 74.3833 128.933 76.0115 127.729 77.5921C127.147 78.355 118.651 59.7197 115.666 55.5532L109.208 50.5448C109.208 50.5448 90.8716 53.631 90.8491 52.6274C90.8381 52.1359 96.92 63.9303 95.6718 63.4076C94.25 62.8123 90.9052 65.7094 89.4307 65.1098C88.8223 64.8624 84.5235 54.4398 82.7834 50.1689C82.331 49.0641 82.7944 47.7964 83.8528 47.2439C85.1606 46.5638 103.331 42.4146 103.331 42.4146L103.014 40.7917L104.332 38.1558L118.171 41.0553Z" fill="#2F2E41"/>
<circle cx="102.223" cy="11.1363" r="5.14014" transform="rotate(-80.7827 102.223 11.1363)" fill="#FFB6B6"/>
<path d="M118.651 41.8469C118.934 42.6984 117.096 43.1875 114.534 42.709C112.317 42.2952 109.891 41.8036 107.977 41.4055C105.928 40.9785 104.463 40.6596 104.463 40.6596C104.463 40.6596 103.936 43.9545 102.223 43.5591C100.747 43.2191 96.3354 27.8105 95.1427 23.5521C94.9635 22.9132 95.2311 22.233 95.7977 21.8875L101.856 18.1879C101.856 18.1879 106.032 16.754 107.554 16.7131C109.076 16.6723 111.712 16.2769 111.712 16.2769C111.712 16.2769 114.744 16.5405 115.271 18.781C115.798 21.0216 117.998 34.3061 118.039 37.4964C118.083 40.9958 117.8 39.2937 118.651 41.8469Z" fill="#CACACA"/>
<path d="M104.145 4.53418C104.145 4.53418 102.013 10.1828 96.7907 12.5275L95.9381 7.51836L104.145 4.53418Z" fill="#2F2E41"/>
<ellipse cx="107.231" cy="9.15976" rx="0.724895" ry="1.38388" fill="#FFB6B6"/>
<path d="M100.066 73.8034L89.8767 78.4878L89.8174 78.3589C88.8105 76.1686 89.7697 73.5768 91.9599 72.5697L91.9601 72.5695L98.1834 69.7085L100.066 73.8034Z" fill="#2F2E41"/>
<path d="M131.316 83.1623L137.566 80.3605L137.567 80.3604C139.766 79.3745 142.349 80.3584 143.335 82.5581L143.393 82.6875L133.16 87.2749L131.316 83.1623Z" fill="#2F2E41"/>
<path opacity="0.2" d="M114.395 29.6484L113.202 42.7722L115.323 42.8723L114.395 29.6484Z" fill="black"/>
<path d="M106.078 54.1656C106.59 53.5943 106.822 52.8256 106.713 52.0664C106.603 51.3073 106.163 50.6356 105.511 50.2321L100.927 27.0757L95.6624 29.0897L101.824 51.2184C101.205 52.3848 101.556 53.8296 102.642 54.5815C103.727 55.3335 105.203 55.1548 106.078 54.1656Z" fill="#FFB6B6"/>
<path d="M102.086 30.9782L96.3061 31.9963C95.9733 32.0549 95.6315 31.9657 95.3697 31.7521C95.1079 31.5384 94.9521 31.2213 94.9428 30.8835L94.7833 25.0342C94.4844 23.2804 95.6613 21.6155 97.4143 21.312C99.1674 21.0085 100.835 22.181 101.143 23.9332L102.987 29.4666C103.094 29.7873 103.056 30.1385 102.883 30.4287C102.71 30.719 102.419 30.9196 102.086 30.9782H102.086Z" fill="#CACACA"/>
<path d="M110.51 53.758C111.178 53.3809 111.644 52.7274 111.784 51.9732C111.924 51.219 111.722 50.4417 111.234 49.8503L114.317 26.4468L108.685 26.6664L107.425 49.6023C106.465 50.5087 106.335 51.9899 107.122 53.0501C107.909 54.1104 109.364 54.4145 110.51 53.758H110.51Z" fill="#FFB6B6"/>
<path d="M114.164 30.5153L108.363 29.6261C108.029 29.5749 107.733 29.3808 107.554 29.0945C107.375 28.8082 107.329 28.4579 107.428 28.135L109.153 22.5434C109.432 20.7863 111.081 19.5867 112.838 19.8614C114.596 20.1361 115.8 21.7815 115.53 23.54L115.502 29.3725C115.501 29.7104 115.352 30.0308 115.095 30.2503C114.838 30.4697 114.498 30.5664 114.164 30.5153Z" fill="#CACACA"/>
</svg>
