<svg width="224" height="148" viewBox="0 0 224 148" fill="none" xmlns="http://www.w3.org/2000/svg">
<path d="M80.1229 85.6119C87.8109 72.3013 102.476 62.081 118 63.0656C106.549 75.3215 99.8716 91.1689 99.1494 107.804C98.8945 114.22 99.2898 121.383 94.9611 126.188C92.2678 129.177 88.151 130.625 84.1033 130.929C80.0554 131.232 76.0084 130.512 72.0146 129.796L71.0457 130.088C70.6769 114.782 72.4349 98.9224 80.1229 85.6119Z" fill="#F0F0F0"/>
<path d="M117.794 63.6726C106.371 69.1105 96.6321 78.1924 90.6533 89.2686C89.3607 91.6632 88.2602 94.2036 87.7802 96.8897C87.2999 99.5769 87.6354 102.135 88.5634 104.687C89.4119 107.021 90.553 109.31 90.8132 111.807C91.0874 114.438 90.1083 116.899 88.3459 118.852C86.1896 121.241 83.2937 122.722 80.4109 124.072C77.2101 125.572 73.8615 127.079 71.5944 129.878C71.3197 130.217 70.8037 129.776 71.078 129.437C75.0223 124.568 81.774 123.653 86.4559 119.73C88.6406 117.9 90.2807 115.407 90.1772 112.487C90.0867 109.933 88.912 107.571 88.0323 105.216C87.1086 102.743 86.6479 100.256 86.9792 97.6196C87.3181 94.9225 88.3204 92.3342 89.5455 89.9174C92.3082 84.4669 96.089 79.4629 100.42 75.1373C105.398 70.1651 111.199 66.0717 117.573 63.0342C117.967 62.8463 118.186 63.4859 117.794 63.6726V63.6726Z" fill="white"/>
<path d="M92.334 83.9351C88.1521 81.4637 86.8012 76.9076 89.1429 73.1727C89.3739 72.8075 90.087 73.0804 89.8557 73.4461C87.6664 76.9221 88.9369 81.169 92.8494 83.4525C93.2606 83.693 92.7428 84.1743 92.334 83.9351Z" fill="white"/>
<path d="M87.3253 103.332C92.0563 102.706 96.3529 100.488 99.3584 97.1198C99.6559 96.7859 100.212 97.2216 99.9153 97.5551C96.7804 101.054 92.3039 103.354 87.3792 103.996C86.9097 104.057 86.8584 103.392 87.3253 103.332L87.3253 103.332Z" fill="white"/>
<path d="M105.606 71.0664C106.87 72.1114 108.754 72.6123 110.62 72.3994C111.091 72.3446 111.142 72.8948 110.674 72.9492C108.612 73.1772 106.533 72.6283 105.123 71.4837C104.975 71.382 104.958 71.2118 105.085 71.095C105.219 70.9805 105.451 70.9677 105.606 71.0664Z" fill="white"/>
<path d="M148 105.362C147.734 105.412 147.467 105.461 147.199 105.516C143.623 106.198 140.108 107.17 136.689 108.422C136.423 108.515 136.155 108.613 135.892 108.713C127.688 111.817 120.131 116.417 113.605 122.281C111.01 124.617 108.597 127.147 106.386 129.849C103.333 133.581 100.32 137.87 96.3299 140.303C95.9165 140.562 95.4875 140.795 95.0454 141L72.0618 131.463C72.0205 131.415 71.9767 131.372 71.9351 131.324L71 130.985C71.1043 130.838 71.2156 130.687 71.3199 130.54C71.3801 130.454 71.4453 130.371 71.5055 130.285C71.5472 130.229 71.5892 130.172 71.6236 130.119C71.6374 130.1 71.6515 130.081 71.6632 130.068C71.6976 130.014 71.7352 129.968 71.7675 129.92C72.3875 129.077 73.0145 128.237 73.6485 127.399C73.6507 127.394 73.6507 127.394 73.658 127.391C78.5053 121.022 83.9267 115.002 90.089 109.996C90.2745 109.846 90.4619 109.69 90.6578 109.544C93.448 107.303 96.4167 105.294 99.5341 103.537C101.244 102.58 103.002 101.711 104.799 100.932C109.449 98.9286 114.384 97.6693 119.425 97.2003C129.474 96.2668 139.709 98.5587 147.416 104.874C147.613 105.036 147.805 105.195 148 105.362Z" fill="#F0F0F0"/>
<path d="M147.56 105.788C135.295 103.383 122.166 104.803 110.803 109.971C108.346 111.089 105.953 112.432 103.962 114.25C101.969 116.068 100.697 118.261 99.8949 120.795C99.1617 123.111 98.6854 125.564 97.3907 127.665C96.026 129.88 93.7766 131.231 91.2151 131.73C88.081 132.34 84.9103 131.81 81.8279 131.186C78.4055 130.493 74.8619 129.72 71.3947 130.585C70.9746 130.69 70.8332 130.045 71.2526 129.94C77.285 128.435 83.1539 131.652 89.1985 131.315C92.0191 131.158 94.8084 130.167 96.4812 127.826C97.944 125.779 98.4374 123.25 99.159 120.899C99.9168 118.429 101.047 116.219 102.892 114.353C104.779 112.444 107.124 111.007 109.541 109.833C114.991 107.185 120.975 105.479 126.986 104.624C133.894 103.64 140.923 103.821 147.769 105.161C148.193 105.244 147.98 105.871 147.56 105.788L147.56 105.788Z" fill="white"/>
<path d="M114.418 107.752C113.035 103.519 115.173 98.9827 119.469 97.0366C119.89 96.8473 120.228 97.444 119.806 97.6335C115.801 99.4396 113.817 103.674 115.13 107.61C115.268 108.025 114.555 108.164 114.418 107.752Z" fill="white"/>
<path d="M99.5449 119.048C103.527 121.257 108.185 121.865 112.59 120.749C113.026 120.638 113.173 121.33 112.738 121.441C108.152 122.593 103.305 121.951 99.1663 119.642C98.7719 119.422 99.1526 118.829 99.5449 119.048Z" fill="white"/>
<path d="M134.57 103.269C134.7 105.008 135.561 106.553 136.861 107.381C137.19 107.589 136.874 108.162 136.547 107.956C135.115 107.034 134.163 105.332 134.005 103.414C133.977 103.23 134.074 103.053 134.227 103.007C134.383 102.969 134.536 103.086 134.57 103.269Z" fill="white"/>
<path d="M103.615 120.605C100.365 104.801 96.303 99.5316 96.303 99.5316L94.7511 98.3212L92.8848 96.8632L92.8938 96.6757L92.4512 96.5244L92.3472 96.4431L92.1768 96.3115L92.1494 96.3412L92.0916 96.4014L83.6464 93.5142L72.9323 89.8539L67.9709 83.3679C66.3329 81.2266 63.7924 79.9802 61.1062 80.0002L45.2614 80.1182C43.119 80.1341 41.06 80.9555 39.4892 82.4209L29.0746 92.137L12.8467 99.932L12.8193 99.9045L12.6489 100.027L10.1415 101.233L10.245 101.774L8.69311 102.901C8.69311 102.901 4.63082 107.804 1.38097 122.509C0.554242 126.251 0.147298 134.278 0.000413307 144.169C-0.01449 145.179 0.374189 146.154 1.07943 146.874C1.78468 147.594 2.74759 148 3.75259 148H90.4291V148H101.247C102.252 148 103.214 147.594 103.919 146.875C104.624 146.156 105.013 145.182 105 144.173C104.856 133.41 104.449 124.663 103.615 120.605Z" fill="#3F3D56"/>
<path d="M115.801 14C108.731 14 103 19.5964 103 26.5C103 33.4036 108.731 39 115.801 39H211.199C218.269 39 224 33.4036 224 26.5C224 19.5964 218.269 14 211.199 14H115.801Z" fill="#E5E5E5"/>
<path d="M115.138 16C109.539 16 105 20.4772 105 26C105 31.5228 109.539 36 115.138 36H209.862C215.461 36 220 31.5228 220 26C220 20.4772 215.461 16 209.862 16H115.138Z" fill="white"/>
<circle cx="56" cy="53" r="21" fill="#FFA8A7"/>
<path d="M51.05 74C51.0165 73.6678 50.9832 73.3345 50.95 73C50.9628 73.0019 50.9754 73.0102 50.9883 73.0117L51.05 74Z" fill="#2F2E41"/>
<path d="M35.2419 33.9068C36.3057 33.0635 37.549 32.2876 38.9091 32.3313C40.2691 32.3748 41.6483 33.5955 41.3665 34.9184C46.523 25.8457 57.4888 21.7597 67.3769 25.2264C70.7572 26.4115 74.0721 28.7824 74.8486 32.2598C75.0479 33.1524 75.0907 34.1312 75.6516 34.8561C76.3588 35.77 77.7118 35.9767 78.826 35.6552C78.8371 35.652 78.8482 35.6488 78.8593 35.6455C79.2444 35.5148 79.6708 35.6306 79.9354 35.9378C80.2001 36.245 80.2494 36.6815 80.0601 37.0395L79.1037 38.812C80.3093 39.0791 81.5621 39.0526 82.7552 38.7349C83.1614 38.629 83.5906 38.7885 83.8272 39.1331C84.0639 39.4777 84.0568 39.9331 83.8096 40.2703C80.6558 44.573 75.3869 47.3515 70.0101 47.3188C66.1886 47.2957 62.3278 45.9869 58.6086 46.8602C55.6945 47.5444 53.2483 49.5021 51.9545 52.1855C50.6607 54.869 50.6581 57.9901 51.9474 60.6757C50.8049 59.4338 48.5962 59.7278 47.4275 60.9454C46.2588 62.1631 45.9562 63.9804 46.074 65.659C46.2541 68.2263 47.2663 70.6455 48.3334 73C39.3865 72.7201 30.9242 66.4834 28.0757 58.0481C25.2153 49.5774 28.2131 39.4787 35.2419 33.9068Z" fill="#2F2E41"/>
<path opacity="0.2" d="M21 116L26.6249 147.696L30 148L21 116Z" fill="black"/>
<path opacity="0.2" d="M85 114L79.3751 147.676L76 148L85 114Z" fill="black"/>
<path fill-rule="evenodd" clip-rule="evenodd" d="M36.666 16.7925L37.5526 16.4226L37.5526 16.4226C37.7919 16.3228 37.9801 16.1298 38.0737 15.8883C38.1673 15.6467 38.1583 15.3775 38.0487 15.1427C37.2974 13.606 37.2589 12.0605 37.9202 9.97472C38.7094 7.4646 39.2006 5.52643 38.3274 3.43751C37.4347 1.30185 35.484 -1.08461 31.6089 0.531845C30.3726 1.04692 29.2566 1.81241 28.3313 2.77999C27.8863 3.26118 27.89 4.00439 28.3399 4.48107C28.5673 4.72194 28.8829 4.86017 29.2143 4.86407C29.5571 4.86937 29.8874 4.7353 30.1293 4.49262C30.5634 4.06249 30.7936 3.97439 31.2144 3.81334C31.3273 3.77013 31.4539 3.72167 31.6019 3.65995C33.4055 2.94092 34.8198 3.43728 35.4821 5.02183C36.055 6.39232 35.7701 7.90509 35.0843 10.0561C34.344 12.4539 34.4532 14.5429 35.4073 16.2617L35.4511 16.3474C35.6789 16.7884 36.2067 16.9818 36.666 16.7925ZM36.922 21.6169C37.41 22.7843 38.5736 23.2941 39.6887 22.829C40.8399 22.3488 41.2977 21.1849 40.8018 19.9985C40.2983 18.7941 39.1554 18.283 38.0223 18.7557C36.8893 19.2283 36.4266 20.4316 36.922 21.6169Z" fill="#E24C4C"/>
<path d="M135.566 33H117.44C117.283 33.0012 117.138 32.9062 117.059 32.751C116.98 32.5958 116.98 32.4042 117.059 32.249C117.138 32.0938 117.283 31.9988 117.44 32H135.566C135.806 32.0019 136 32.2252 136 32.5C136 32.7748 135.806 32.9981 135.566 33Z" fill="#E24C4C"/>
<path d="M159.561 33H141.439C141.283 33.0012 141.138 32.9062 141.059 32.751C140.98 32.5958 140.98 32.4042 141.059 32.249C141.138 32.0938 141.283 31.9988 141.439 32H159.561C159.717 31.9988 159.862 32.0938 159.941 32.249C160.02 32.4042 160.02 32.5958 159.941 32.751C159.862 32.9062 159.717 33.0012 159.561 33Z" fill="#E24C4C"/>
<path d="M184.56 33H166.434C166.194 32.9981 166 32.7748 166 32.5C166 32.2252 166.194 32.0019 166.434 32H184.56C184.717 31.9988 184.862 32.0938 184.941 32.249C185.02 32.4042 185.02 32.5958 184.941 32.751C184.862 32.9062 184.717 33.0012 184.56 33H184.56Z" fill="#E24C4C"/>
<path d="M208.566 33H190.434C190.194 32.9981 190 32.7748 190 32.5C190 32.2252 190.194 32.0019 190.434 32H208.566C208.806 32.0019 209 32.2252 209 32.5C209 32.7748 208.806 32.9981 208.566 33Z" fill="#E24C4C"/>
<circle cx="126.5" cy="25.5" r="3.5" fill="#E24C4C"/>
<circle cx="150.5" cy="25.5" r="3.5" fill="#E24C4C"/>
<circle cx="174.5" cy="25.5" r="3.5" fill="#E24C4C"/>
<circle cx="198.5" cy="25.5" r="3.5" fill="#E24C4C"/>
</svg>
