<svg xmlns="http://www.w3.org/2000/svg" width="105" height="50" viewBox="0 0 105 50" fill="none">
  <rect width="105" height="50" rx="10" fill="white"/>
  <path d="M56.978 12C55.5918 12.0959 53.9717 12.9831 53.0276 14.1385C52.1664 15.1866 51.4579 16.7433 51.7341 18.2562C53.2486 18.3033 54.8135 17.395 55.7202 16.2201C56.5685 15.1265 57.2103 13.5795 56.978 12Z" fill="black"/>
  <path d="M62.4557 20.7228C61.1249 19.0539 59.2545 18.0854 57.4882 18.0854C55.1563 18.0854 54.1699 19.2018 52.5498 19.2018C50.8793 19.2018 49.6102 18.0887 47.5936 18.0887C45.6127 18.0887 43.5035 19.2993 42.1661 21.3696C40.286 24.2848 40.6078 29.7659 43.6546 34.4345C44.745 36.1049 46.201 37.9834 48.1055 37.9997C49.8003 38.0159 50.2781 36.9126 52.5742 36.9012C54.8703 36.8882 55.3058 38.0143 56.9974 37.9964C58.9035 37.9818 60.4391 35.9002 61.5295 34.2297C62.3111 33.0321 62.602 32.4292 63.2081 31.0772C58.7995 29.3986 58.0926 23.1294 62.4557 20.7228Z" fill="black"/>
</svg>