<svg xmlns="http://www.w3.org/2000/svg" width="105" height="50" viewBox="0 0 105 50" fill="none">
  <rect width="105" height="50" rx="10" fill="white"/>
  <path d="M48.9204 26.6791C48.8184 26.6791 46.6776 26.6798 45.6903 26.6788C45.182 26.6785 45.0006 26.4958 45.0006 25.9843C45 24.6703 44.9996 23.3563 45.0006 22.0424C45.0009 21.5373 45.1927 21.3446 45.6945 21.3443C46.6818 21.3436 48.8109 21.3439 48.9204 21.3439C48.9204 21.2539 48.9201 19.3569 48.9204 18.4833C48.9211 17.1917 49.1515 15.9554 49.8077 14.8235C50.4795 13.6648 51.4571 12.8712 52.7099 12.4123C53.5124 12.1182 54.3453 12.0009 55.1968 12.0002C56.2622 11.9996 57.3275 12.0005 58.3932 12.0025C58.8511 12.0031 59.0543 12.2056 59.0552 12.6668C59.0572 13.9027 59.0572 15.1387 59.0552 16.3744C59.0546 16.8404 58.8599 17.0276 58.3916 17.0328C57.5183 17.0422 56.6444 17.0364 55.7721 17.0715C54.891 17.0715 54.4276 17.5018 54.4276 18.4137C54.4064 19.3783 54.4188 20.3439 54.4188 21.3436C54.5013 21.3436 57.0087 21.3433 58.1807 21.3436C58.713 21.3436 58.895 21.5266 58.895 22.0619C58.895 23.3687 58.8947 24.6758 58.8937 25.9827C58.8934 26.5101 58.7224 26.6785 58.1868 26.6788C57.0149 26.6795 54.5173 26.6791 54.4081 26.6791V37.2563C54.4081 37.8201 54.2306 37.9999 53.6742 37.9999C52.3177 37.9999 50.9608 38.0002 49.6042 37.9999C49.1125 37.9999 48.9208 37.8088 48.9208 37.317C48.9204 33.8724 48.9204 26.8 48.9204 26.6791Z" fill="#3D6AD6"/>
</svg>