<svg xmlns="http://www.w3.org/2000/svg" width="105" height="50" viewBox="0 0 105 50" fill="none">
  <rect width="105" height="50" rx="10" fill="white"/>
  <path d="M47.1562 25C47.1562 23.9101 47.4566 22.889 47.9783 22.0147V18.3062H44.2697C42.7978 20.2177 42 22.5475 42 25C42 27.4526 42.7978 29.7823 44.2697 31.6939H47.9783V27.9854C47.4566 27.1111 47.1562 26.09 47.1562 25Z" fill="#FBBD00"/>
  <path d="M53 30.844L50.4219 33.4221L53 36.0002C55.4526 36.0002 57.7823 35.2024 59.6939 33.7305V30.0259H55.9893C55.1074 30.5495 54.082 30.844 53 30.844Z" fill="#0F9D58"/>
  <path d="M47.9783 27.9854L44.2698 31.6939C44.5612 32.0724 44.8785 32.4348 45.2219 32.7782C47.2995 34.8558 50.0618 36 53 36V30.8438C50.8678 30.8438 48.9989 29.6956 47.9783 27.9854Z" fill="#31AA52"/>
  <path d="M64 25.0002C64 24.331 63.9394 23.6605 63.8199 23.0075L63.7232 22.479H53V27.6353H58.2186C57.7119 28.6433 56.9327 29.4658 55.9892 30.0259L59.6938 33.7305C60.0723 33.4391 60.4348 33.1218 60.7782 32.7784C62.8558 30.7008 64 27.9384 64 25.0002Z" fill="#3C79E6"/>
  <path d="M57.1322 20.8678L57.5879 21.3236L61.2339 17.6776L60.7782 17.2218C58.7006 15.1442 55.9382 14 53 14L50.4219 16.5781L53 19.1562C54.5609 19.1562 56.0284 19.7641 57.1322 20.8678Z" fill="#CF2D48"/>
  <path d="M53 19.1562V14C50.0618 14 47.2994 15.1442 45.2218 17.2218C44.8784 17.5652 44.5611 17.9276 44.2697 18.3061L47.9782 22.0147C48.9988 20.3044 50.8677 19.1562 53 19.1562Z" fill="#EB4132"/>
</svg>