<svg xmlns="http://www.w3.org/2000/svg" width="64" height="50" viewBox="0 0 64 50" fill="none">
  <path d="M31.5469 34.1939C41.2874 34.1964 50.3079 29.0641 55.2822 20.6895C52.3557 9.99203 42.6354 2.57373 31.5448 2.57373C20.4543 2.57373 10.7339 9.99203 7.80743 20.6895C12.7831 29.0648 21.8051 34.197 31.5469 34.1939Z" fill="#B13535"/>
  <mask id="mask0_56_6016" style="mask-type:luminance" maskUnits="userSpaceOnUse" x="7" y="2" width="49" height="33">
    <path d="M31.5469 34.1939C41.2874 34.1964 50.3079 29.0641 55.2822 20.6895C52.3557 9.99203 42.6354 2.57373 31.5448 2.57373C20.4543 2.57373 10.7339 9.99203 7.80743 20.6895C12.7831 29.0648 21.8051 34.197 31.5469 34.1939Z" fill="white"/>
  </mask>
  <g mask="url(#mask0_56_6016)">
    <path d="M27.147 12.5854C27.147 12.5854 15.2245 22.3447 14.5413 38.2605H18.201C18.201 38.2605 18.4166 21.812 28.3914 12.6749L27.147 12.5854Z" fill="white"/>
    <path d="M27.147 12.5854C27.147 12.5854 15.2245 22.3447 14.5413 38.2605H18.201C18.201 38.2605 18.4166 21.812 28.3914 12.6749L27.147 12.5854Z" fill="white"/>
  </g>
  <path d="M27.4968 0V4.473L29.229 4.90403L27.4968 5.33913V7.46584L29.229 7.90094L27.4968 8.33198V12.866C29.5828 12.866 31.2622 9.98699 31.2622 6.43299C31.2622 2.87898 29.5828 0 27.4968 0Z" fill="white"/>
  <path d="M18.3962 3.76975L21.5599 6.93338L23.0929 6.01438L22.1739 7.54334L23.6784 9.04789L25.2074 8.12889L24.2884 9.66191L27.4968 12.8662C28.9728 11.3942 28.123 8.16956 25.61 5.65654C23.097 3.14353 19.8723 2.29366 18.3962 3.76975Z" fill="white"/>
  <path d="M14.6267 12.866H19.0997L19.5307 11.1338L19.9699 12.866H22.1007L22.5317 11.1338L22.9668 12.866H27.5008C27.5008 10.78 24.6178 9.10059 21.0678 9.10059C17.5179 9.10059 14.6267 10.78 14.6267 12.866Z" fill="white"/>
  <path d="M40.8751 13.3782H36.4021L35.971 11.646L35.5359 13.3782H33.4092L32.9823 11.646L32.5472 13.3782H28.0091C28.0091 11.2922 30.8881 9.61279 34.4421 9.61279C37.9961 9.61279 40.8751 11.2922 40.8751 13.3782Z" fill="white"/>
  <path d="M37.1096 22.479L33.946 19.3153L34.865 17.7701L33.332 18.6891L31.8274 17.1805L32.7464 15.6515L31.2175 16.5705L28.0091 13.3622C29.4852 11.8902 32.7098 12.736 35.2228 15.249C37.7358 17.762 38.5816 21.0232 37.1096 22.479Z" fill="white"/>
  <path d="M28.0091 26.2485V21.7755L29.7292 21.3404L27.9969 20.9093V18.7785L29.7292 18.3475L27.9969 17.9165V13.3784C30.0951 13.3784 31.7623 16.2615 31.7623 19.8033C31.7623 23.3451 30.0951 26.2485 28.0091 26.2485Z" fill="white"/>
  <path d="M31.5468 34.1941C34.261 34.1945 36.9603 33.7944 39.5576 33.0067C38.3647 29.6029 35.1516 27.3242 31.5448 27.3242C27.938 27.3242 24.7249 29.6029 23.532 33.0067C26.1307 33.7947 28.8314 34.1948 31.5468 34.1941Z" fill="white"/>
  <path d="M31.5468 42.6765C15.5413 42.6757 2.07213 30.6905 0.211451 14.7935C0.0710714 16.0083 0.000471881 17.2302 0 18.4532C0 35.876 14.124 50 31.5468 50C48.9697 50 63.0937 35.876 63.0937 18.4532C63.0919 17.2302 63.0199 16.0082 62.8782 14.7935C61.0194 30.6899 47.5516 42.6755 31.5468 42.6765Z" fill="#1E3762"/>
  <path d="M31.5468 34.1942C17.5324 34.1942 5.73885 23.6994 4.11109 9.77979C3.99056 10.8436 3.92947 11.9134 3.9281 12.9841C3.92638 23.2359 9.60332 32.6452 18.6733 37.4237C27.7434 42.2022 38.714 41.5637 47.1684 35.7651C55.6227 29.9665 60.1697 19.9622 58.9785 9.77979C57.3509 23.6978 45.5597 34.1921 31.5468 34.1942Z" fill="#1E3762"/>
</svg>